{
  "accessors": [
    {
      "bufferView": 2,
      "componentType": 5126,
      "count": 11478,
      "max": [
        1.0000004768371582,
        1.0000004768371582,
        1.0000004768371582
      ],
      "min": [
        -1.0000004768371582,
        -1.0000004768371582,
        -1.0000004768371582
      ],
      "type": "VEC3"
    },
    {
      "bufferView": 2,
      "byteOffset": 137736,
      "componentType": 5126,
      "count": 11478,
      "max": [
        1.0,
        1.0,
        1.0
      ],
      "min": [
        -1.0,
        -1.0,
        -1.0
      ],
      "type": "VEC3"
    },
    {
      "bufferView": 3,
      "componentType": 5126,
      "count": 11478,
      "max": [
        1.0,
        0.9996111392974854,
        0.9992407560348511,
        1.0
      ],
      "min": [
        -1.0,
        -1.0,
        -0.9992275238037109,
        1.0
      ],
      "type": "VEC4"
    },
    {
      "bufferView": 1,
      "componentType": 5126,
      "count": 11478,
      "max": [
        0.9859798550605774,
        0.9600045680999756
      ],
      "min": [
        0.014021121896803379,
        0.01402250025421381
      ],
      "type": "VEC2"
    },
    {
      "bufferView": 1,
      "byteOffset": 91824,
      "componentType": 5126,
      "count": 11478,
      "max": [
        0.9859798550605774,
        0.9600045680999756
      ],
      "min": [
        0.014021121896803379,
        0.01402250025421381
      ],
      "type": "VEC2"
    },
    {
      "bufferView": 1,
      "byteOffset": 183648,
      "componentType": 5126,
      "count": 11478,
      "max": [
        0.9859798550605774,
        0.9600045680999756
      ],
      "min": [
        0.014021121896803379,
        0.01402250025421381
      ],
      "type": "VEC2"
    },
    {
      "bufferView": 0,
      "componentType": 5125,
      "count": 61632,
      "type": "SCALAR"
    }
  ],
  "asset": {
    "extras": {
      "author": "Seth Gardner (https://sketchfab.com/sethgardner)",
      "license": "SKETCHFAB Standard (https://sketchfab.com/licenses)",
      "source": "https://sketchfab.com/3d-models/free-dice-model-d6-mid-poly-4k-6c490dec982b40e6927f8191cd19f8c3",
      "title": "Free Dice Model (D6) Mid-Poly 4K"
    },
    "generator": "Sketchfab-16.33.0",
    "version": "2.0"
  },
  "bufferViews": [
    {
      "buffer": 0,
      "byteLength": 246528,
      "name": "floatBufferViews",
      "target": 34963
    },
    {
      "buffer": 0,
      "byteLength": 275472,
      "byteOffset": 246528,
      "byteStride": 8,
      "name": "floatBufferViews",
      "target": 34962
    },
    {
      "buffer": 0,
      "byteLength": 275472,
      "byteOffset": 522000,
      "byteStride": 12,
      "name": "floatBufferViews",
      "target": 34962
    },
    {
      "buffer": 0,
      "byteLength": 183648,
      "byteOffset": 797472,
      "byteStride": 16,
      "name": "floatBufferViews",
      "target": 34962
    }
  ],
  "buffers": [
    {
      "byteLength": 981120,
      "uri": "scene.bin"
    }
  ],
  "images": [
    {
      "uri": "textures/Dice_Mat_baseColor.png"
    },
    {
      "uri": "textures/Dice_Mat_metallicRoughness.png"
    },
    {
      "uri": "textures/Dice_Mat_normal.png"
    }
  ],
  "materials": [
    {
      "doubleSided": true,
      "name": "Dice_Mat",
      "normalTexture": {
        "index": 2
      },
      "pbrMetallicRoughness": {
        "baseColorTexture": {
          "index": 0
        },
        "metallicFactor": 0.0,
        "metallicRoughnessTexture": {
          "index": 1
        }
      }
    }
  ],
  "meshes": [
    {
      "name": "high poly.002_Dice_Mat_0",
      "primitives": [
        {
          "attributes": {
            "NORMAL": 1,
            "POSITION": 0,
            "TANGENT": 2,
            "TEXCOORD_0": 3,
            "TEXCOORD_1": 4,
            "TEXCOORD_2": 5
          },
          "indices": 6,
          "material": 0,
          "mode": 4
        }
      ]
    }
  ],
  "nodes": [
    {
      "children": [
        1
      ],
      "matrix": [
        0.009708737954497337,
        0.0,
        0.0,
        0.0,
        0.0,
        2.155772883427018e-18,
        -0.009708737954497337,
        0.0,
        0.0,
        0.009708737954497337,
        2.155772883427018e-18,
        0.0,
        0.0,
        0.0,
        0.0,
        1.0
      ],
      "name": "Sketchfab_model"
    },
    {
      "children": [
        2
      ],
      "matrix": [
        0.009999999776482582,
        0.0,
        0.0,
        0.0,
        0.0,
        0.0,
        0.009999999776482582,
        0.0,
        0.0,
        -0.009999999776482582,
        0.0,
        0.0,
        0.0,
        0.0,
        0.0,
        1.0
      ],
      "name": "9add4a43261a416e87e75459dec79a83.fbx"
    },
    {
      "children": [
        3
      ],
      "name": "RootNode"
    },
    {
      "children": [
        4
      ],
      "matrix": [
        100.0,
        0.0,
        0.0,
        0.0,
        0.0,
        -1.629206793918314e-05,
        -99.99999999999868,
        0.0,
        0.0,
        99.99999999999868,
        -1.629206793918314e-05,
        0.0,
        0.0,
        0.0,
        0.0,
        1.0
      ],
      "name": "high poly.002"
    },
    {
      "mesh": 0,
      "name": "high poly.002_Dice_Mat_0"
    }
  ],
  "samplers": [
    {
      "magFilter": 9729,
      "minFilter": 9987,
      "wrapS": 10497,
      "wrapT": 10497
    }
  ],
  "scene": 0,
  "scenes": [
    {
      "name": "Sketchfab_Scene",
      "nodes": [
        0
      ]
    }
  ],
  "textures": [
    {
      "sampler": 0,
      "source": 0
    },
    {
      "sampler": 0,
      "source": 1
    },
    {
      "sampler": 0,
      "source": 2
    }
  ]
}
